{
  "accessors": [
    {
      "bufferView": 2,
      "componentType": 5126,
      "count": 15035,
      "max": [
        0.09444525837898254,
        0.2504594624042511,
        0.0946875587105751
      ],
      "min": [
        -0.08573555201292038,
        3.28421179141003e-09,
        -0.05815022438764572
      ],
      "type": "VEC3"
    },
    {
      "bufferView": 2,
      "byteOffset": 180420,
      "componentType": 5126,
      "count": 15035,
      "max": [
        0.9994595646858215,
        0.9997773766517639,
        0.9999455213546753
      ],
      "min": [
        -0.99969083070755,
        -0.9997707009315491,
        -0.999667227268219
      ],
      "type": "VEC3"
    },
    {
      "bufferView": 3,
      "componentType": 5126,
      "count": 15035,
      "max": [
        0.9999647736549377,
        0.9999748468399048,
        0.9993945360183716,
        1.0
      ],
      "min": [
        -0.9998198747634888,
        -0.9999219179153442,
        -0.9999658465385437,
        -1.0
      ],
      "type": "VEC4"
    },
    {
      "bufferView": 1,
      "componentType": 5126,
      "count": 15035,
      "max": [
        0.9982755780220032,
        0.9999576807022095
      ],
      "min": [
        0.0001531441230326891,
        4.463914956431836e-05
      ],
      "type": "VEC2"
    },
    {
      "bufferView": 0,
      "componentType": 5125,
      "count": 75000,
      "type": "SCALAR"
    }
  ],
  "asset": {
    "extras": {
      "author": "mannymanny (https://sketchfab.com/mannymanny)",
      "license": "CC-BY-4.0 (http://creativecommons.org/licenses/by/4.0/)",
      "source": "https://sketchfab.com/3d-models/inaba-tewi-fumo-from-touhou-project-25d5f6596d4d470a9f3bcacaf9a6b1ec",
      "title": "Inaba Tewi Fumo from Touhou Project"
    },
    "generator": "Sketchfab-15.68.0",
    "version": "2.0"
  },
  "bufferViews": [
    {
      "buffer": 0,
      "byteLength": 300000,
      "name": "floatBufferViews",
      "target": 34963
    },
    {
      "buffer": 0,
      "byteLength": 120280,
      "byteOffset": 300000,
      "byteStride": 8,
      "name": "floatBufferViews",
      "target": 34962
    },
    {
      "buffer": 0,
      "byteLength": 360840,
      "byteOffset": 420280,
      "byteStride": 12,
      "name": "floatBufferViews",
      "target": 34962
    },
    {
      "buffer": 0,
      "byteLength": 240560,
      "byteOffset": 781120,
      "byteStride": 16,
      "name": "floatBufferViews",
      "target": 34962
    }
  ],
  "buffers": [
    {
      "byteLength": 1021680,
      "uri": "scene.bin"
    }
  ],
  "images": [
    {
      "uri": "textures/Texture_baseColor.png"
    },
    {
      "uri": "textures/Texture_metallicRoughness.png"
    },
    {
      "uri": "textures/Texture_normal.png"
    }
  ],
  "materials": [
    {
      "name": "Texture",
      "normalTexture": {
        "index": 2
      },
      "occlusionTexture": {
        "index": 1
      },
      "pbrMetallicRoughness": {
        "baseColorTexture": {
          "index": 0
        },
        "metallicFactor": 0.0,
        "metallicRoughnessTexture": {
          "index": 1
        },
        "roughnessFactor": 0.9
      }
    }
  ],
  "meshes": [
    {
      "name": "Mesh",
      "primitives": [
        {
          "attributes": {
            "NORMAL": 1,
            "POSITION": 0,
            "TANGENT": 2,
            "TEXCOORD_0": 3
          },
          "indices": 4,
          "material": 0,
          "mode": 4
        }
      ]
    }
  ],
  "nodes": [
    {
      "children": [
        1
      ],
      "matrix": [
        1.0,
        0.0,
        0.0,
        0.0,
        0.0,
        2.220446049250313e-16,
        -1.0,
        0.0,
        0.0,
        1.0,
        2.220446049250313e-16,
        0.0,
        0.0,
        0.0,
        0.0,
        1.0
      ],
      "name": "Sketchfab_model"
    },
    {
      "children": [
        2
      ],
      "matrix": [
        1.0,
        0.0,
        0.0,
        0.0,
        0.0,
        2.220446049250313e-16,
        1.0,
        0.0,
        0.0,
        -1.0,
        2.220446049250313e-16,
        0.0,
        0.0,
        0.0,
        0.0,
        1.0
      ],
      "name": "USDRoot"
    },
    {
      "children": [
        3
      ],
      "name": "ObjectCapture"
    },
    {
      "children": [
        4
      ],
      "name": "Geometry"
    },
    {
      "mesh": 0,
      "name": "Mesh"
    }
  ],
  "samplers": [
    {
      "magFilter": 9729,
      "minFilter": 9987,
      "wrapS": 10497,
      "wrapT": 10497
    }
  ],
  "scene": 0,
  "scenes": [
    {
      "name": "Sketchfab_Scene",
      "nodes": [
        0
      ]
    }
  ],
  "textures": [
    {
      "sampler": 0,
      "source": 0
    },
    {
      "sampler": 0,
      "source": 1
    },
    {
      "sampler": 0,
      "source": 2
    }
  ]
}
